# xmcd CD database file
#
# Track frame offsets:
#	150
#	17100
#	37878
#	52250
#	67275
#	83775
#	96450
#	112525
#	130050
#	146325
#	162533
#	175800
#
# Disc length: 2569 seconds
#
# Revision: 0
# Processed by: cddbd v1.4PL0 Copyright (c) Steve Scherf et al.
# Submitted via: CDex 1.40Release
#
DISCID=a20a070c
DTITLE=Ray Stevens - The Legendary Ray Stevens
DYEAR=1989
DGENRE=Country
TTITLE0=Mississippi Squirrel Revival
TTITLE1=Erik the Awful
TTITLE2=The Monkees (Theme From)
TTITLE3=Stuck On You
TTITLE4=There's A Star Spangled Banner
TTITLE5=Would Jesus Wear a Rolex
TTITLE6=Its Me Again Margaret
TTITLE7=Your Bozo's Back Again
TTITLE8=I Saw Elvis In A U.F.O.
TTITLE9=The Flies of Texas Are Upon YOu
TTITLE10=Doctor Doctor (Have mercy On Me)
TTITLE11=Gourmet Restaurant
EXTD=YEAR: 1989 ID3G: 2
EXTT0=
EXTT1=
EXTT2=
EXTT3=
EXTT4=
EXTT5=
EXTT6=
EXTT7=
EXTT8=
EXTT9=
EXTT10=
EXTT11=
PLAYORDER=
